<svg xmlns="http://www.w3.org/2000/svg" viewBox="0 0 40 40"><g style="fill:#002A54"><path d="M22.007 23.5v.381c-.858.093-1.405.591-1.405 1.462 0 .642.419 1.062.902 1.281.095.043.533.223 1.35.555.227.09.309.206.309.438 0 .168-.026.238-.105.313-.207.195-.368.243-.696.243-.33 0-.693-.105-.974-.329a.5.5 0 1 0-.623.782c.372.297.81.461 1.242.52v.39a.5.5 0 0 0 1 0v-.449c.26-.074.497-.203.738-.43.29-.276.418-.61.418-1.04 0-.646-.336-1.133-.94-1.368-.783-.318-1.23-.502-1.307-.536-.164-.074-.314-.226-.314-.37 0-.348.176-.482.707-.482.387 0 .655.076.82.21a.5.5 0 1 0 .629-.777 1.876 1.876 0 0 0-.751-.35v-.445a.5.5 0 1 0-1 0zM19 17.5a.5.5 0 0 0-.5-.5h-7a.5.5 0 0 0 0 1h7a.5.5 0 0 0 .5-.5z"/><path d="M24 8.999H9a1 1 0 0 0-1 1v21a1 1 0 0 0 1 1l21.477.015a1.5 1.5 0 0 0 1.5-1.5v-8.015a1.5 1.5 0 0 0-1.5-1.5H25v-11a1 1 0 0 0-1-1zm-11.936 22H9v-21h15v11H13.477a1.5 1.5 0 0 0-1.5 1.5v8.015c0 .17.034.332.087.485zm1.972.015c-.026-.002-.048-.015-.075-.015h-.555a.493.493 0 0 1-.43-.485v-8.015a.5.5 0 0 1 .5-.5h5.596c-1.368.99-2.244 2.627-2.244 4.5 0 1.882.883 3.526 2.263 4.515h-5.055zm16.44-9.015a.5.5 0 0 1 .5.5v8.015c0 .275-.224.5-.5.5h-5.162a5.491 5.491 0 0 0 .018-9.015h5.145zm-3.8 4.5a4.5 4.5 0 0 1-4.5 4.5c-2.451 0-4.348-1.98-4.348-4.5s1.897-4.5 4.348-4.5a4.5 4.5 0 0 1 4.5 4.5z"/><path d="M11.5 15h10a.5.5 0 0 0 0-1h-10a.5.5 0 0 0 0 1z"/></g></svg>
