<svg xmlns="http://www.w3.org/2000/svg" viewBox="0 0 40 40"><g style="fill:#002A54"><path d="M22.5 13h-8c-.3 0-.5.2-.5.5s.2.5.5.5h8c.3 0 .5-.2.5-.5s-.2-.5-.5-.5zM22.5 16h-8c-.3 0-.5.2-.5.5s.2.5.5.5h8c.3 0 .5-.2.5-.5s-.2-.5-.5-.5zM25.6 19H25c-.3 0-.5.2-.5.5s.2.5.5.5h.6c.3 0 .5-.2.5-.5s-.2-.5-.5-.5zM22.5 19h-8c-.3 0-.5.2-.5.5s.2.5.5.5h8c.3 0 .5-.2.5-.5s-.2-.5-.5-.5zM25.6 13H25c-.3 0-.5.2-.5.5s.2.5.5.5h.6c.3 0 .5-.2.5-.5s-.2-.5-.5-.5z"/><path d="M12.5 8c-.8 0-1.5.7-1.5 1.5v21c0 .8.7 1.5 1.5 1.5h6.9c.2 0 .4 0 .6-.1l8.1-3.6c.6-.3.9-.8.9-1.4V9.5c0-.8-.7-1.5-1.5-1.5h-15zM20 30.8v-2.3c0-.3.2-.5.5-.5h5.7L20 30.8zm8-21.3V27h-7.5c-.8 0-1.5.7-1.5 1.5V31h-6.5c-.3 0-.5-.2-.5-.5v-21c0-.3.2-.5.5-.5h15c.3 0 .5.2.5.5z"/><path d="M25.6 16H25c-.3 0-.5.2-.5.5s.2.5.5.5h.6c.3 0 .5-.2.5-.5s-.2-.5-.5-.5z"/></g></svg>
