<svg xmlns="http://www.w3.org/2000/svg" viewBox="0 0 40 40"><g style="fill:#002A54"><path d="M23.7 25.999h3.6c.936 0 1.7-.763 1.7-1.7v-.6c0-.936-.764-1.7-1.7-1.7h-3.6c-.936 0-1.7.764-1.7 1.7v.6c0 .937.764 1.7 1.7 1.7zm-.7-2.3c0-.383.316-.7.7-.7h3.6c.385 0 .7.317.7.7v.6c0 .384-.315.7-.7.7h-3.6a.703.703 0 0 1-.7-.7v-.6z"/><path d="M9.65 11C8.736 11 8 11.774 8 12.712v14.572C8 28.223 8.736 29 9.65 29h20.7c.916 0 1.65-.776 1.65-1.714V12.713c0-.938-.734-1.714-1.65-1.714H9.65zM31 27.284c0 .398-.3.714-.65.714H9.65c-.35 0-.65-.316-.65-.714V16h22v11.286zm0-14.572V15H9v-2.286c0-.398.3-.714.65-.714h20.7c.35 0 .65.316.65.714z"/></g></svg>
