<svg xmlns="http://www.w3.org/2000/svg" viewBox="0 0 40 40"><g style="fill:#002A54"><path d="M11.455 15h9.09c.252 0 .455-.225.455-.5s-.203-.5-.454-.5h-9.091c-.251 0-.455.223-.455.5s.204.5.455.5zM22.358 24.386l-1.004-1.004a.5.5 0 0 0-.707.707l1.004 1.004a1.5 1.5 0 0 0 2.12 0c.013-.01.013-.01.023-.021l3.443-3.588a.5.5 0 0 0-.722-.692l-3.45 3.594a.499.499 0 0 1-.707 0zM17 17.5c0-.277-.175-.5-.391-.5h-5.218c-.216 0-.391.223-.391.5s.175.5.391.5h5.218c.216 0 .391-.225.391-.5z"/><path d="M25 10a1 1 0 0 0-1-1H9a1 1 0 0 0-1 1v21a1 1 0 0 0 1 1h15l.002-.026C28.461 31.714 32 28.024 32 23.5c0-4.184-3.025-7.653-7.006-8.36l.006-.092V10zM9 31V10h15v5.024c-.166-.009-.331-.025-.5-.025a8.5 8.5 0 0 0-8.5 8.5 8.497 8.497 0 0 0 4.502 7.5H9zm22-7.5c0 4.142-3.357 7.5-7.5 7.5a7.5 7.5 0 1 1 7.5-7.5z"/></g></svg>
