<svg xmlns="http://www.w3.org/2000/svg" viewBox="0 0 40 40"><g style="fill:#002A54"><path d="M25.9 11.3c-.7 0-1.5.3-2.1.9-1.2 1.1-1.2 3 0 4.2 1.1 1.2 3 1.2 4.2 0s1.2-3.1 0-4.2c-.6-.6-1.4-.9-2.1-.9zm1.4 4.4c-.4.4-.9.6-1.4.6s-1-.2-1.4-.6c-.8-.8-.8-2 0-2.8s2-.8 2.8 0 .8 2 0 2.8z"/><path d="M30.4 21c.4-.4.6-.9.7-1.5l.8-8.7v-.2c0-1.3-1.2-2.4-2.5-2.4h-.1l-8.7.8c-.5 0-1.1.3-1.5.7l-9.5 9.5c-1.4 1.4-1.9 2.3-.9 3.3l8.9 8.9c.9 1 1.9.5 3.3-.9l9.5-9.5zm-11.8 9.8c-.1 0-.2 0-.3-.1l-8.9-8.9c-.4-.4-.1-.9.9-1.9l9.5-9.5c.2-.2.6-.4.9-.4l8.7-.8c.8 0 1.5.7 1.5 1.3v.1l-.8 8.7c0 .3-.2.7-.4.9l-9.5 9.5c-.8.8-1.3 1.1-1.6 1.1z"/></g></svg>
