<svg xmlns="http://www.w3.org/2000/svg" viewBox="0 0 40 40"><path d="M24.344 26.943c-1.31 1.238-2.506 1.59-4.322 1.59H20v2.92a.545.545 0 1 1-1.091 0v-2.992c-1.431-.185-2.883-.734-4.104-1.707a.546.546 0 1 1 .68-.854c1.328 1.06 2.999 1.541 4.537 1.541 1.562 0 2.497-.273 3.574-1.29.561-.53.768-1.128.768-2.168 0-1.446-.64-2.39-1.988-2.929-3.044-1.236-4.715-1.922-5.05-2.073a5.835 5.835 0 0 1-1.56-1.035c-.765-.714-1.22-1.58-1.22-2.595 0-2.55 1.631-3.98 4.363-4.232V8.545a.546.546 0 0 1 1.091 0v2.535c1.9.025 3.396.466 4.474 1.338a.547.547 0 0 1-.688.848c-.893-.724-2.209-1.096-3.963-1.096-2.737 0-4.187 1.05-4.187 3.18 0 .678.314 1.275.875 1.799.397.37.857.653 1.265.837.315.143 1.997.834 5.008 2.056 1.758.703 2.67 2.048 2.67 3.941 0 1.317-.306 2.202-1.11 2.96z" style="fill:white"/></svg>
