<svg xmlns="http://www.w3.org/2000/svg" viewBox="0 0 40 40"><path d="M8 20c0 6.6 5.4 12 12 12s12-5.4 12-12S26.6 8 20 8 8 13.4 8 20zm9.9-10.8c-.8 1-1.6 2.7-2.1 4.7-1.4-.2-2.9-.4-4.4-.8 1.6-2 3.9-3.4 6.5-3.9zm-1.7 10.3c0-1.6.1-3.1.4-4.5 2.2.2 4.5.2 6.7 0 .3 1.4.5 2.9.5 4.5h-7.6zm7.7 1c-.1 1.6-.2 3.1-.5 4.5-2.3-.2-4.5-.2-6.7 0-.3-1.3-.5-2.9-.4-4.5h7.6zM10.8 14c1.7.4 3.3.7 4.9.9-.3 1.4-.5 3-.5 4.6H9c.1-2 .8-3.9 1.8-5.5zM9 20.5h6.2c0 1.6.2 3.2.5 4.6-1.6.2-3.3.5-4.9.9-1.1-1.6-1.7-3.5-1.8-5.5zm2.4 6.4c1.5-.4 3-.6 4.5-.8.4 2 1.1 3.7 2 4.7-2.6-.5-4.9-1.9-6.5-3.9zM20 31c-1.2 0-2.4-2-3.1-5 2.1-.2 4.1-.2 6.2 0-.7 3-1.9 5-3.1 5zm2.1-.2c.8-1 1.5-2.7 2.1-4.7 1.4.2 2.9.4 4.4.8-1.6 2-3.9 3.4-6.5 3.9zm7.1-4.8c-1.7-.4-3.3-.7-4.9-.9.3-1.4.5-2.9.5-4.6H31c-.1 2-.8 3.9-1.8 5.5zm1.8-6.5h-6.2c0-1.6-.2-3.2-.5-4.6 1.6-.2 3.3-.5 4.9-.9 1.1 1.6 1.7 3.5 1.8 5.5zm-2.5-6.4c-1.5.3-2.9.6-4.4.8-.4-2-1.1-3.7-2-4.7 2.6.5 4.9 1.9 6.4 3.9zm-5.4.9c-2.1.2-4.1.2-6.2 0 .7-3 1.9-5 3.1-5s2.4 2 3.1 5z" style="fill:white"/></svg>
