<svg xmlns="http://www.w3.org/2000/svg" viewBox="0 0 40 40"><g style="fill:white"><path d="M20.469 21h6a.5.5 0 0 0 0-1h-6a.5.5 0 0 0 0 1zM20.469 18h6a.5.5 0 0 0 0-1h-6a.5.5 0 0 0 0 1zM16.173 18.76c-.906-.367-1.423-.58-1.513-.62-.215-.097-.412-.295-.412-.502 0-.453.244-.638.9-.638.466 0 .795.092 1.002.26a.5.5 0 0 0 .63-.776 2.085 2.085 0 0 0-.811-.386V15.5a.5.5 0 1 0-1 0v.51c-1.051.059-1.721.612-1.721 1.628 0 .705.465 1.17 1 1.413.109.049.616.258 1.555.639.3.117.416.283.416.586 0 .216-.04.317-.147.42-.257.243-.463.304-.863.304-.4 0-.837-.126-1.178-.4a.5.5 0 0 0-.624.783 2.859 2.859 0 0 0 1.562.598v.519a.5.5 0 0 0 1 0v-.604c.278-.085.53-.23.79-.473.32-.304.46-.67.46-1.147 0-.717-.37-1.251-1.046-1.515z"/><path d="M28.469 12h-17a1.5 1.5 0 0 0-1.5 1.5V24H8.5a.5.5 0 0 0-.5.5v1a2.5 2.5 0 0 0 2.5 2.5h18.985a2.5 2.5 0 0 0 2.5-2.5v-1a.5.5 0 0 0-.5-.5h-1.516V13.5a1.5 1.5 0 0 0-1.5-1.5zm-17.5 1.5a.5.5 0 0 1 .5-.5h17a.5.5 0 0 1 .5.5V24h-6a.503.503 0 0 0-.354.145l-.854.854h-3.584l-.852-.854A.504.504 0 0 0 16.97 24h-6.002V13.5zM30.985 25v.5a1.5 1.5 0 0 1-1.5 1.5H10.5A1.5 1.5 0 0 1 9 25.5V25h7.763l.851.853a.507.507 0 0 0 .354.146h4c.133 0 .26-.053.354-.146l.853-.854h7.81z"/></g></svg>
