<svg xmlns="http://www.w3.org/2000/svg" viewBox="0 0 40 40"><g style="fill:white"><path d="M21.65 25.593a1.5 1.5 0 0 0 2.122 0c.012-.01.012-.01.022-.021l3.443-3.588a.5.5 0 0 0-.722-.692l-3.45 3.594a.499.499 0 0 1-.707 0l-1.004-1.004a.5.5 0 0 0-.707.707l1.004 1.004z"/><path d="M19.5 7.998h-9a2.5 2.5 0 0 0-2.5 2.5v19a2.5 2.5 0 0 0 2.5 2.5h9c.479 0 .915-.148 1.292-.384.84.277 1.737.432 2.67.432a8.538 8.538 0 1 0 0-17.076c-.5 0-.986.052-1.462.134v-4.606a2.5 2.5 0 0 0-2.5-2.5zM9 10.498a1.5 1.5 0 0 1 1.5-1.5h9a1.5 1.5 0 0 1 1.5 1.5v1.5H9v-1.5zm0 2.5h12v2.375a8.503 8.503 0 0 0-6 8.125c0 1.25.276 2.432.76 3.5H9v-14zm1.5 18a1.5 1.5 0 0 1-1.5-1.5v-1.5h7.298a8.534 8.534 0 0 0 3.204 3H10.5zM23.462 15.97c4.157 0 7.538 3.382 7.538 7.538 0 4.157-3.381 7.538-7.538 7.538-4.156 0-7.538-3.381-7.538-7.538 0-4.156 3.382-7.538 7.538-7.538z"/></g></svg>
