<svg xmlns="http://www.w3.org/2000/svg" viewBox="0 0 40 40"><path d="M20.2 13l-.9-2.6c-.1-.1-.1-.3-.2-.4-.6-1.1-1.7-1.7-2.8-1.7-.5 0-1 .2-1.5.4l-1.1.6c-1.8 1-2.8 3-2.3 5 .7 3 1.8 5.9 3.2 8.6 1.5 2.7 3.3 5.2 5.4 7.5 1.4 1.5 3.6 1.9 5.4.9l1.1-.6c.1-.1.3-.2.4-.3 1.3-1 1.6-3 .6-4.4l-1.7-2.2c-.4-.6-1.2-.7-1.9-.4l-2.1 1.1c-1-1.3-1.8-2.7-2.6-4.1-.8-1.4-1.5-2.9-2-4.4l2.3-1.2c.6-.3.9-1.1.7-1.8zm-1.3.9l-2.5 1.4c-.2.1-.3.4-.2.6.6 1.7 1.4 3.4 2.2 5 .8 1.6 1.8 3.1 2.9 4.6.1.2.4.2.6.1l2.5-1.3c.2-.2.5-.1.6.1l1.6 2.2c.7.9.5 2.3-.4 3-.1.1-.2.1-.3.2l-1.1.6c-.5.3-1 .4-1.6.4-1 0-1.9-.4-2.6-1.1-2.1-2.3-3.8-4.7-5.2-7.3-1.3-2.6-2.4-5.4-3.1-8.4-.3-1.6.4-3.2 1.8-3.9l1.1-.6c1-.5 2.3-.1 2.9.9 0 .1.1.2.1.3l.9 2.6c.1.2 0 .5-.2.6z" style="fill:white"/></svg>
